<svg width="449" height="385" viewBox="0 0 449 385" fill="none" xmlns="http://www.w3.org/2000/svg">
<path d="M385.628 257.122V284.194" stroke="white" stroke-width="5" stroke-linecap="round" stroke-linejoin="round"/>
<path d="M348.099 281.574H109.059V382H348.099V281.574Z" stroke="white" stroke-width="5" stroke-linecap="round" stroke-linejoin="round"/>
<path d="M348.099 319.998H423.157V382" stroke="white" stroke-width="5" stroke-linecap="round" stroke-linejoin="round"/>
<path d="M33.1859 382V326.984" stroke="white" stroke-width="5" stroke-linecap="round" stroke-linejoin="round"/>
<path d="M18.501 319.998H109.059" stroke="white" stroke-width="5" stroke-linecap="round" stroke-linejoin="round"/>
<path d="M348.099 319.998H435.394" stroke="white" stroke-width="5" stroke-linecap="round" stroke-linejoin="round"/>
<path d="M408.471 291.18H348.915V319.998H408.471V291.18Z" stroke="white" stroke-width="5" stroke-linecap="round" stroke-linejoin="round"/>
<path d="M109.059 56.2696H48.6869V319.998H109.059V56.2696Z" stroke="white" stroke-width="5" stroke-linecap="round" stroke-linejoin="round"/>
<path d="M40.5285 116.525H123.744" stroke="white" stroke-width="5" stroke-linecap="round" stroke-linejoin="round"/>
<path d="M284.464 214.332H334.23V281.574" stroke="white" stroke-width="5" stroke-linecap="round" stroke-linejoin="round"/>
<path d="M139.245 281.574V214.332H181.668" stroke="white" stroke-width="5" stroke-linecap="round" stroke-linejoin="round"/>
<path d="M334.23 199.486V274.588" stroke="white" stroke-width="5" stroke-linecap="round" stroke-linejoin="round"/>
<path d="M139.245 199.486V274.588" stroke="white" stroke-width="5" stroke-linecap="round" stroke-linejoin="round"/>
<path d="M397.866 259.742H334.23V230.924H372.411L397.866 259.742Z" stroke="white" stroke-width="5" stroke-linecap="round" stroke-linejoin="round"/>
<path d="M183.3 279.111V139.23H281.201V279.827" stroke="white" stroke-width="5" stroke-linecap="round" stroke-linejoin="round"/>
<path d="M109.059 56.2696V45.9277C108.76 36.6048 105.764 27.5737 100.439 19.9464C95.1146 12.319 87.6942 6.42844 79.0918 3L78.9333 3.06849C70.2635 6.46643 62.7748 12.3581 57.3975 20.0116C52.0201 27.6652 48.9912 36.7432 48.6869 46.1179V56.2696" stroke="white" stroke-width="5" stroke-linecap="round" stroke-linejoin="round"/>
<path d="M78.8729 139.23V154.076" stroke="white" stroke-width="5" stroke-linecap="round" stroke-linejoin="round"/>
<path d="M78.8729 79.8479V93.8203" stroke="white" stroke-width="5" stroke-linecap="round" stroke-linejoin="round"/>
<path d="M78.8729 176.781V191.627" stroke="white" stroke-width="5" stroke-linecap="round" stroke-linejoin="round"/>
<path d="M78.8729 214.332V230.924" stroke="white" stroke-width="5" stroke-linecap="round" stroke-linejoin="round"/>
<path d="M78.8729 251.883V268.475" stroke="white" stroke-width="5" stroke-linecap="round" stroke-linejoin="round"/>
<path d="M184.116 279.789C186.778 260.69 207.492 245.77 232.658 245.77C257.824 245.77 278.569 260.675 281.201 279.827" stroke="white" stroke-width="5" stroke-linecap="round" stroke-linejoin="round"/>
<path d="M183.3 214.332H213.486V199.486H251.219V214.332H273.858" stroke="white" stroke-width="5" stroke-linecap="round" stroke-linejoin="round"/>
<path d="M205.328 162.809V168.922" stroke="white" stroke-width="5" stroke-linecap="round" stroke-linejoin="round"/>
<path d="M258.357 162.809V168.922" stroke="white" stroke-width="5" stroke-linecap="round" stroke-linejoin="round"/>
<path d="M235.514 162.809V168.922" stroke="white" stroke-width="5" stroke-linecap="round" stroke-linejoin="round"/>
<path d="M183.3 139.23C183.387 127.278 186.634 115.555 192.72 105.22C198.807 94.8848 207.522 86.2954 218.005 80.3007L243.499 79.8479C255.173 84.763 265.039 93.091 271.767 103.709C278.494 114.327 281.76 126.725 281.122 139.23H183.3Z" stroke="white" stroke-width="5" stroke-linecap="round" stroke-linejoin="round"/>
<path d="M70.7145 342.703V365.408" stroke="white" stroke-width="5" stroke-linecap="round" stroke-linejoin="round"/>
<path d="M385.628 342.703V365.408" stroke="white" stroke-width="5" stroke-linecap="round" stroke-linejoin="round"/>
<path d="M228.171 305.152C236.177 305.152 243.855 308.391 249.516 314.155C255.177 319.92 258.357 327.739 258.357 335.891V382H197.985V335.891C197.985 327.739 201.166 319.92 206.827 314.155C212.488 308.391 220.165 305.152 228.171 305.152Z" stroke="white" stroke-width="5" stroke-linecap="round" stroke-linejoin="round"/>
<path d="M288.543 319.998C296.549 319.998 304.227 323.264 309.888 329.078C315.549 334.892 318.729 342.777 318.729 350.999V382H258.357V350.999C258.357 342.777 261.538 334.892 267.199 329.078C272.86 323.264 280.537 319.998 288.543 319.998Z" stroke="white" stroke-width="5" stroke-linecap="round" stroke-linejoin="round"/>
<path d="M168.615 319.998C176.404 319.998 183.875 323.264 189.383 329.078C194.891 334.892 197.985 342.777 197.985 350.999V382H139.245V350.999C139.245 342.777 142.339 334.892 147.847 329.078C153.355 323.264 160.826 319.998 168.615 319.998Z" stroke="white" stroke-width="5" stroke-linecap="round" stroke-linejoin="round"/>
<path d="M3 382H446" stroke="white" stroke-width="5" stroke-linecap="round" stroke-linejoin="round"/>
<path d="M243.672 79.8479V37.3071C243.672 34.2301 242.469 31.279 240.327 29.1032C238.185 26.9274 235.28 25.7051 232.25 25.7051C229.221 25.7051 226.316 26.9274 224.174 29.1032C222.032 31.279 220.829 34.2301 220.829 37.3071V79.8479" stroke="white" stroke-width="5" stroke-linecap="round" stroke-linejoin="round"/>
<path d="M220.829 56.2696H243.672" stroke="white" stroke-width="5" stroke-linecap="round" stroke-linejoin="round"/>
<path d="M229.803 380.253V351.435" stroke="white" stroke-width="5" stroke-linecap="round" stroke-linejoin="round"/>
<path d="M288.543 380.253V351.435" stroke="white" stroke-width="5" stroke-linecap="round" stroke-linejoin="round"/>
<path d="M169.431 380.253V351.435" stroke="white" stroke-width="5" stroke-linecap="round" stroke-linejoin="round"/>
<path d="M48.6869 297.293H109.059" stroke="white" stroke-width="5" stroke-linecap="round" stroke-linejoin="round"/>
<path d="M116.401 251.883H131.902" stroke="white" stroke-width="5" stroke-linecap="round" stroke-linejoin="round"/>
<path d="M146.588 245.77H183.3" stroke="white" stroke-width="5" stroke-linecap="round" stroke-linejoin="round"/>
<path d="M288.543 245.77H326.888" stroke="white" stroke-width="5" stroke-linecap="round" stroke-linejoin="round"/>
<path d="M116.401 230.924H131.902" stroke="white" stroke-width="5" stroke-linecap="round" stroke-linejoin="round"/>
<path d="M341.573 351.435H326.888" stroke="white" stroke-width="5" stroke-linecap="round" stroke-linejoin="round"/>
<path d="M116.401 351.435H139.245" stroke="white" stroke-width="5" stroke-linecap="round" stroke-linejoin="round"/>
</svg>
