<svg width="540" height="417" viewBox="0 0 540 417" fill="none" xmlns="http://www.w3.org/2000/svg">
<path d="M540 254.144H230.949V417H540V254.144Z" fill="#E6E6E6"/>
<path d="M531.163 268.109H239.786V403.985H531.163V268.109Z" fill="white"/>
<path d="M539.868 244.735H230.817V259.315H539.868V244.735Z" fill="#F1BB45"/>
<path d="M240.574 256.011C241.918 256.011 243.007 254.801 243.007 253.309C243.007 251.816 241.918 250.606 240.574 250.606C239.23 250.606 238.141 251.816 238.141 253.309C238.141 254.801 239.23 256.011 240.574 256.011Z" fill="white"/>
<path d="M249.811 256.011C251.155 256.011 252.244 254.801 252.244 253.309C252.244 251.816 251.155 250.606 249.811 250.606C248.467 250.606 247.377 251.816 247.377 253.309C247.377 254.801 248.467 256.011 249.811 256.011Z" fill="white"/>
<path d="M259.048 256.011C260.392 256.011 261.481 254.801 261.481 253.309C261.481 251.816 260.392 250.606 259.048 250.606C257.704 250.606 256.614 251.816 256.614 253.309C256.614 254.801 257.704 256.011 259.048 256.011Z" fill="white"/>
<path d="M516.86 376.466H372.388C372.268 376.466 372.153 376.413 372.068 376.319C371.983 376.225 371.936 376.097 371.936 375.964V299.066C371.936 298.933 371.983 298.805 372.068 298.711C372.153 298.617 372.268 298.564 372.388 298.564C372.508 298.564 372.623 298.617 372.708 298.711C372.792 298.805 372.84 298.933 372.84 299.066V375.462H516.86C516.98 375.462 517.095 375.515 517.18 375.609C517.265 375.703 517.312 375.831 517.312 375.964C517.312 376.097 517.265 376.225 517.18 376.319C517.095 376.413 516.98 376.466 516.86 376.466Z" fill="#3F3D56"/>
<path d="M403.255 370.943H390.115C389.759 370.942 389.418 370.785 389.166 370.506C388.915 370.226 388.773 369.848 388.773 369.452V349.337C388.773 348.942 388.915 348.563 389.166 348.283C389.418 348.004 389.759 347.847 390.115 347.846H403.255C403.611 347.847 403.952 348.004 404.204 348.283C404.455 348.563 404.597 348.942 404.597 349.337V369.452C404.597 369.848 404.455 370.226 404.204 370.506C403.952 370.785 403.611 370.942 403.255 370.943Z" fill="#F1BB45"/>
<path d="M427.218 370.943H414.078C413.722 370.942 413.381 370.785 413.129 370.506C412.878 370.226 412.736 369.848 412.736 369.453V330.257C412.736 329.862 412.878 329.483 413.129 329.204C413.381 328.924 413.722 328.767 414.078 328.767H427.218C427.574 328.767 427.915 328.924 428.167 329.204C428.418 329.483 428.56 329.862 428.56 330.257V369.453C428.56 369.848 428.419 370.226 428.167 370.506C427.915 370.785 427.574 370.942 427.218 370.943Z" fill="#F1BB45"/>
<path d="M451.181 370.943H438.041C437.685 370.942 437.344 370.785 437.092 370.506C436.841 370.226 436.699 369.848 436.699 369.452V349.337C436.699 348.942 436.841 348.563 437.092 348.283C437.344 348.004 437.685 347.847 438.041 347.846H451.181C451.537 347.847 451.878 348.004 452.13 348.283C452.381 348.563 452.523 348.942 452.523 349.337V369.452C452.523 369.848 452.381 370.226 452.13 370.506C451.878 370.785 451.537 370.942 451.181 370.943Z" fill="#F1BB45"/>
<path d="M475.144 370.943H462.004C461.656 370.951 461.32 370.806 461.068 370.539C460.817 370.273 460.67 369.906 460.662 369.52V322.658C460.67 322.272 460.817 321.906 461.068 321.639C461.32 321.372 461.656 321.227 462.004 321.235H475.144C475.492 321.227 475.828 321.372 476.08 321.639C476.332 321.906 476.478 322.272 476.486 322.658V369.52C476.478 369.906 476.332 370.273 476.08 370.539C475.828 370.806 475.492 370.951 475.144 370.943Z" fill="#F1BB45"/>
<path d="M499.107 370.943H485.967C485.611 370.942 485.27 370.785 485.018 370.506C484.767 370.226 484.625 369.848 484.625 369.453V309.169C484.625 308.774 484.767 308.395 485.018 308.116C485.27 307.836 485.611 307.679 485.967 307.679H499.107C499.463 307.679 499.804 307.836 500.056 308.116C500.308 308.395 500.449 308.774 500.449 309.169V369.453C500.449 369.848 500.308 370.226 500.056 370.506C499.804 370.785 499.463 370.942 499.107 370.943Z" fill="#F1BB45"/>
<path d="M396.685 341.821C398.183 341.821 399.398 340.473 399.398 338.809C399.398 337.145 398.183 335.796 396.685 335.796C395.187 335.796 393.972 337.145 393.972 338.809C393.972 340.473 395.187 341.821 396.685 341.821Z" fill="#3F3D56"/>
<path d="M420.648 322.24C422.146 322.24 423.361 320.891 423.361 319.227C423.361 317.563 422.146 316.214 420.648 316.214C419.15 316.214 417.935 317.563 417.935 319.227C417.935 320.891 419.15 322.24 420.648 322.24Z" fill="#3F3D56"/>
<path d="M444.611 341.821C446.109 341.821 447.324 340.473 447.324 338.809C447.324 337.145 446.109 335.796 444.611 335.796C443.113 335.796 441.898 337.145 441.898 338.809C441.898 340.473 443.113 341.821 444.611 341.821Z" fill="#3F3D56"/>
<path d="M468.574 312.7C470.072 312.7 471.287 311.351 471.287 309.687C471.287 308.023 470.072 306.675 468.574 306.675C467.076 306.675 465.861 308.023 465.861 309.687C465.861 311.351 467.076 312.7 468.574 312.7Z" fill="#3F3D56"/>
<path d="M492.537 301.654C494.035 301.654 495.25 300.305 495.25 298.641C495.25 296.977 494.035 295.629 492.537 295.629C491.039 295.629 489.824 296.977 489.824 298.641C489.824 300.305 491.039 301.654 492.537 301.654Z" fill="#3F3D56"/>
<path d="M444.668 339.484L420.648 319.504L396.956 339.211L396.414 338.407L420.648 318.249L444.554 338.134L468.31 309.264L468.405 309.221L492.368 298.499L492.706 299.431L468.839 310.11L444.668 339.484Z" fill="#3F3D56"/>
<path d="M313.76 284.717H272.724V288.142H313.76V284.717Z" fill="#E6E6E6"/>
<path d="M336.093 294.772H272.724V298.198H336.093V294.772Z" fill="#F1BB45"/>
<path d="M325.027 304.349H273.382V307.774H325.027V304.349Z" fill="#E6E6E6"/>
<path d="M302.873 314.857H272.724V318.282H302.873V314.857Z" fill="#E6E6E6"/>
<path d="M318.227 325.12H272.724V328.545H318.227V325.12Z" fill="#F1BB45"/>
<path d="M259.045 283.64H254.02V289.22H259.045V283.64Z" fill="#E6E6E6"/>
<path d="M259.045 293.695H254.02V299.275H259.045V293.695Z" fill="#F1BB45"/>
<path d="M259.045 303.271H254.02V308.852H259.045V303.271Z" fill="#E6E6E6"/>
<path d="M259.045 313.779H254.02V319.359H259.045V313.779Z" fill="#E6E6E6"/>
<path d="M259.045 324.043H254.02V329.623H259.045V324.043Z" fill="#F1BB45"/>
<path d="M313.76 335.448H272.724V338.873H313.76V335.448Z" fill="#E6E6E6"/>
<path d="M336.093 345.504H272.724V348.929H336.093V345.504Z" fill="#F1BB45"/>
<path d="M325.027 355.08H273.382V358.505H325.027V355.08Z" fill="#E6E6E6"/>
<path d="M302.873 365.588H272.724V369.013H302.873V365.588Z" fill="#E6E6E6"/>
<path d="M318.227 375.851H272.724V379.276H318.227V375.851Z" fill="#E6E6E6"/>
<path d="M259.045 334.371H254.02V339.951H259.045V334.371Z" fill="#E6E6E6"/>
<path d="M259.045 344.426H254.02V350.006H259.045V344.426Z" fill="#F1BB45"/>
<path d="M259.045 354.002H254.02V359.583H259.045V354.002Z" fill="#E6E6E6"/>
<path d="M259.045 364.51H254.02V370.09H259.045V364.51Z" fill="#E6E6E6"/>
<path d="M259.045 374.774H254.02V380.354H259.045V374.774Z" fill="#E6E6E6"/>
<path d="M139.465 249.257C124.303 255.635 107.164 260.496 87.8762 263.49C75.3397 265.401 62.6999 266.506 50.0302 266.799C38.9403 267.086 27.2624 266.828 14.9963 266.026V15.7608C14.9981 14.5073 15.4825 13.3059 16.343 12.4202C17.2036 11.5345 18.37 11.037 19.5861 11.037L21.4168 11.0438L28.7591 11.0643H28.8852L225.995 11.5702H226.891L234.014 11.5907C235.035 14.9815 235.986 18.4747 236.866 22.0706C254.615 94.7323 241.509 206.333 139.465 249.257Z" fill="#F2F2F2"/>
<path d="M58.9629 116.364C59.0802 124.644 46.4612 124.644 46.5796 116.364C46.4622 108.084 59.0812 108.084 58.9629 116.364Z" fill="#F1BB45"/>
<path d="M167.939 126.698H48.425C47.9369 126.698 47.4687 126.898 47.1235 127.254C46.7784 127.61 46.5845 128.092 46.5845 128.595C46.5845 129.098 46.7784 129.581 47.1235 129.937C47.4687 130.292 47.9369 130.492 48.425 130.492H167.939C170.36 130.533 170.301 126.657 167.939 126.698Z" fill="#CCCCCC"/>
<path d="M125.45 134.204H48.4249C47.9359 134.204 47.4669 134.405 47.1211 134.761C46.7753 135.117 46.5811 135.601 46.5811 136.105C46.5811 136.609 46.7753 137.092 47.1211 137.449C47.4669 137.805 47.9359 138.005 48.4249 138.005H125.45C127.858 138.04 127.818 134.17 125.45 134.204Z" fill="#CCCCCC"/>
<path d="M167.939 70.2999H48.4249C47.9359 70.2999 47.4669 70.5001 47.1211 70.8565C46.7753 71.2129 46.5811 71.6963 46.5811 72.2004C46.5811 72.7044 46.7753 73.1878 47.1211 73.5442C47.4669 73.9006 47.9359 74.1008 48.4249 74.1008H167.939C170.36 74.135 170.3 70.2657 167.939 70.2999Z" fill="#CCCCCC"/>
<path d="M125.45 77.8128H48.4249C47.9359 77.8128 47.4669 78.0131 47.1211 78.3695C46.7753 78.7259 46.5811 79.2093 46.5811 79.7133C46.5811 80.2173 46.7753 80.7007 47.1211 81.0571C47.4669 81.4135 47.9359 81.6138 48.4249 81.6138H125.45C127.858 81.648 127.818 77.7787 125.45 77.8128Z" fill="#CCCCCC"/>
<path d="M125.45 85.6813H48.4249C47.9359 85.6813 47.4669 85.8815 47.1211 86.2379C46.7753 86.5943 46.5811 87.0777 46.5811 87.5817C46.5811 88.0857 46.7753 88.5691 47.1211 88.9255C47.4669 89.2819 47.9359 89.4822 48.4249 89.4822H125.45C127.858 89.5163 127.818 85.6471 125.45 85.6813Z" fill="#CCCCCC"/>
<path d="M58.9629 165.544C59.0802 173.824 46.4612 173.824 46.5796 165.543C46.4622 157.264 59.0812 157.264 58.9629 165.544Z" fill="#F1BB45"/>
<path d="M167.939 175.871H48.4249C47.9359 175.871 47.4669 176.071 47.1211 176.427C46.7753 176.784 46.5811 177.267 46.5811 177.771C46.5811 178.275 46.7753 178.759 47.1211 179.115C47.4669 179.472 47.9359 179.672 48.4249 179.672H167.939C170.36 179.706 170.3 175.837 167.939 175.871Z" fill="#CCCCCC"/>
<path d="M125.45 183.384H48.4249C47.9359 183.384 47.4669 183.584 47.1211 183.94C46.7753 184.297 46.5811 184.78 46.5811 185.284C46.5811 185.788 46.7753 186.272 47.1211 186.628C47.4669 186.984 47.9359 187.185 48.4249 187.185H125.45C127.858 187.219 127.818 183.35 125.45 183.384Z" fill="#CCCCCC"/>
<path d="M56.9945 60.0208C57.1109 68.2389 44.5861 68.239 44.7036 60.0202C44.5871 51.8026 57.1119 51.8026 56.9945 60.0208Z" fill="#F1BB45"/>
<path d="M229.136 12.4888C228.184 11.5054 20.5618 14.3803 20.7981 11.4943C19.7761 10.406 234.828 7.91663 229.136 12.4888Z" fill="#CACACA"/>
<path d="M10.7099 22.077C16.6248 22.077 21.4198 17.1349 21.4198 11.0385C21.4198 4.94211 16.6248 0 10.7099 0C4.79499 0 0 4.94211 0 11.0385C0 17.1349 4.79499 22.077 10.7099 22.077Z" fill="#CACACA"/>
<path d="M236.689 22.077C242.604 22.077 247.399 17.1349 247.399 11.0385C247.399 4.94211 242.604 0 236.689 0C230.774 0 225.979 4.94211 225.979 11.0385C225.979 17.1349 230.774 22.077 236.689 22.077Z" fill="#CACACA"/>
<path d="M139.465 249.257C124.303 255.635 107.164 260.496 87.8762 263.49C75.3397 265.401 62.6999 266.506 50.0302 266.799C38.6219 266.662 26.944 266.405 14.9963 266.026V257.303C31.0806 243.392 99.9941 241.17 139.465 249.257Z" fill="#CACACA"/>
<path d="M297.5 198.5C297.5 206.187 291.053 212.5 283 212.5C274.947 212.5 268.5 206.187 268.5 198.5C268.5 190.813 274.947 184.5 283 184.5C291.053 184.5 297.5 190.813 297.5 198.5Z" stroke="#00FFE0" stroke-width="3"/>
<path d="M282.5 139C282.5 142.505 279.453 145.5 275.5 145.5C271.547 145.5 268.5 142.505 268.5 139C268.5 135.495 271.547 132.5 275.5 132.5C279.453 132.5 282.5 135.495 282.5 139Z" stroke="#00FFE0" stroke-width="3"/>
<path d="M185.5 261C185.5 264.505 182.453 267.5 178.5 267.5C174.547 267.5 171.5 264.505 171.5 261C171.5 257.495 174.547 254.5 178.5 254.5C182.453 254.5 185.5 257.495 185.5 261Z" stroke="#00FFE0" stroke-width="3"/>
<circle cx="341.5" cy="161.5" r="5" stroke="#00FFE0" stroke-width="3"/>
<circle cx="187.5" cy="297.5" r="5" stroke="#00FFE0" stroke-width="3"/>
</svg>
